# xmcd
#
# Track frame offsets: 
#        150
#        17098
#        32248
#        52648
#        64573
#        83173
#        94123
#        106498
#        121873
#        132298
#        140323
#        152818
#        189534
#        196322
#        244508
#        250275
#
# Disc length: 3574 seconds
#
# Revision: 0
# Processed by: cddbd v1.5.2PL0 Copyright (c) Steve Scherf et al.
# Submitted via: ExactAudioCopy v1.0b3
#
DISCID=cc0df410
DTITLE=Bach - Soli Deo Gloria CD 08
DYEAR=1900
DGENRE=Classical
TTITLE0=Magnificat 1.Magnificat
TTITLE1=Magnificat 2.Et exsultavit spiritus meus
TTITLE2=Magnificat 3.Quia respexit humilitatem 4.Omnes generationes
TTITLE3=Magnificat 5.Quia fecit mihi magna
TTITLE4=Magnificat 6.Et misericordia
TTITLE5=Magnificat 7.Fecit potentiam
TTITLE6=Magnificat 8.Deposuit potentes
TTITLE7=Magnificat 9.Esurientes implevit bonis
TTITLE8=Magnificat 10.Suscepit Israel
TTITLE9=Magnificat 11.Sicut locutus est
TTITLE10=Magnificat 12.Gloria Patri
TTITLE11=Kantate 'Ich habe genug' 1.Ich habe genug
TTITLE12=Kantate 'Ich habe genug' 2.Ich habe genug
TTITLE13=Kantate 'Ich habe genug' 3.Schlummert ein, ihr matten Augen
TTITLE14=Kantate 'Ich habe genug' 4.Meun Gott! Wann kommt da schone Nu
TTITLE14=n?
TTITLE15=Kantate 'Ich habe genug' 5.Ich freue mich auf meinen Tod
EXTD=
EXTT0=
EXTT1=
EXTT2=
EXTT3=
EXTT4=
EXTT5=
EXTT6=
EXTT7=
EXTT8=
EXTT9=
EXTT10=
EXTT11=
EXTT12=
EXTT13=
EXTT14=
EXTT15=
PLAYORDER=
